<svg xmlns="http://www.w3.org/2000/svg" viewBox="0 0 24 24"><g fill-rule="evenodd"><path d="M9.75365,8.5649c0.15676,-0.08875 0.34915,-0.08633 0.50355,0.00635l5,3.00005c0.1507,0.0903 0.2428,0.2531 0.2428,0.4287c0,0.1756 -0.0921,0.3384 -0.2428,0.4287l-5,3c-0.1544,0.0927 -0.34679,0.0952 -0.50355,0.0064c-0.15675,-0.0888 -0.25365,-0.255 -0.25365,-0.4351v-6c0,-0.18014 0.0969,-0.34635 0.25365,-0.4351Zm0.74635,5.552l3.5282,-2.1169l-3.5282,-2.11691v4.23381Z"/><path d="M4.5,12c0,-4.14214 3.35786,-7.5 7.5,-7.5c4.1421,0 7.5,3.35786 7.5,7.5c0,4.1421 -3.3579,7.5 -7.5,7.5c-4.14214,0 -7.5,-3.3579 -7.5,-7.5Zm7.5,-6.5c-3.58985,0 -6.5,2.91015 -6.5,6.5c0,3.5899 2.91015,6.5 6.5,6.5c3.5899,0 6.5,-2.9101 6.5,-6.5c0,-3.58985 -2.9101,-6.5 -6.5,-6.5Z"/><path d="M12,1.5c-5.79899,0 -10.5,4.70101 -10.5,10.5c0,5.799 4.70101,10.5 10.5,10.5c5.799,0 10.5,-4.701 10.5,-10.5c0,-5.79899 -4.701,-10.5 -10.5,-10.5Zm-9.5,10.5c0,-5.24671 4.25329,-9.5 9.5,-9.5c5.2467,0 9.5,4.25329 9.5,9.5c0,5.2467 -4.2533,9.5 -9.5,9.5c-5.24671,0 -9.5,-4.2533 -9.5,-9.5Z"/></g></svg>